<svg id="visual" viewBox="0 0 1920 1080" width="1920" height="1080" xmlns="http://www.w3.org/2000/svg" xmlns:xlink="http://www.w3.org/1999/xlink" version="1.1"><rect x="0" y="0" width="1920" height="1080" fill="#001220"></rect><g transform="translate(2156.7650839200705 170.58984988076128)"><path d="M534.5 -846.5C643.1 -656.8 647.3 -434.3 659.4 -249.2C671.4 -64.1 691.4 83.5 632.6 187.3C573.8 291.1 436.2 351 317.6 481.7C199.1 612.3 99.5 813.7 0.2 813.4C-99.2 813.2 -198.4 611.4 -411.4 511.4C-624.5 411.5 -951.3 413.4 -1079.3 287.5C-1207.2 161.5 -1136.2 -92.3 -995.6 -261.2C-854.9 -430 -644.6 -513.9 -467.1 -681.3C-289.6 -848.6 -144.8 -1099.3 34.1 -1146.2C213 -1193.1 425.9 -1036.3 534.5 -846.5" fill="#C62368"></path></g></svg>