<svg id="visual" viewBox="0 0 1920 1080" width="1920" height="1080" xmlns="http://www.w3.org/2000/svg" xmlns:xlink="http://www.w3.org/1999/xlink" version="1.1"><rect x="0" y="0" width="1920" height="1080" fill="#001220"></rect><g transform="translate(-16.769387217185397 247.01406616105157)"><path d="M670.9 -937.4C871.6 -777.6 1037.8 -584.4 1050.2 -380.4C1062.6 -176.3 921.3 38.5 813.3 231.3C705.3 424 630.7 594.7 500.7 636.8C370.7 679 185.3 592.6 -3.1 596.9C-191.6 601.2 -383.2 696.2 -592.8 679.9C-802.3 663.7 -1029.8 536.1 -1016.9 377.3C-1004 218.5 -750.7 28.4 -611.2 -136.1C-471.7 -300.6 -446 -439.5 -363.1 -637.6C-280.2 -835.6 -140.1 -1092.8 47.5 -1158.2C235.1 -1223.6 470.2 -1097.2 670.9 -937.4" fill="#FA7268"></path></g></svg>