<svg id="visual" viewBox="0 0 1920 1080" width="1920" height="1080" xmlns="http://www.w3.org/2000/svg" xmlns:xlink="http://www.w3.org/1999/xlink" version="1.1"><rect x="0" y="0" width="1920" height="1080" fill="#ffffff"></rect><path d="M1032 0L1033 9.5C1034 19 1036 38 1064 57C1092 76 1146 95 1169.5 114C1193 133 1186 152 1175.8 170.8C1165.7 189.7 1152.3 208.3 1135.8 227.2C1119.3 246 1099.7 265 1091 284C1082.3 303 1084.7 322 1086.5 341C1088.3 360 1089.7 379 1094.7 398C1099.7 417 1108.3 436 1124 455C1139.7 474 1162.3 493 1155 511.8C1147.7 530.7 1110.3 549.3 1094.7 568.2C1079 587 1085 606 1097 625C1109 644 1127 663 1130.3 682C1133.7 701 1122.3 720 1112.8 739C1103.3 758 1095.7 777 1089 796C1082.3 815 1076.7 834 1088.2 852.8C1099.7 871.7 1128.3 890.3 1124.2 909.2C1120 928 1083 947 1077.3 966C1071.7 985 1097.3 1004 1109.5 1023C1121.7 1042 1120.3 1061 1119.7 1070.5L1119 1080L0 1080L0 1070.5C0 1061 0 1042 0 1023C0 1004 0 985 0 966C0 947 0 928 0 909.2C0 890.3 0 871.7 0 852.8C0 834 0 815 0 796C0 777 0 758 0 739C0 720 0 701 0 682C0 663 0 644 0 625C0 606 0 587 0 568.2C0 549.3 0 530.7 0 511.8C0 493 0 474 0 455C0 436 0 417 0 398C0 379 0 360 0 341C0 322 0 303 0 284C0 265 0 246 0 227.2C0 208.3 0 189.7 0 170.8C0 152 0 133 0 114C0 95 0 76 0 57C0 38 0 19 0 9.5L0 0Z" fill="#3cf579"></path><path d="M952 0L948.8 9.5C945.7 19 939.3 38 958.8 57C978.3 76 1023.7 95 1041.7 114C1059.7 133 1050.3 152 1044.7 170.8C1039 189.7 1037 208.3 1020.2 227.2C1003.3 246 971.7 265 972.2 284C972.7 303 1005.3 322 1010.5 341C1015.7 360 993.3 379 992 398C990.7 417 1010.3 436 1024.3 455C1038.3 474 1046.7 493 1046.3 511.8C1046 530.7 1037 549.3 1014 568.2C991 587 954 606 958.7 625C963.3 644 1009.7 663 1018.7 682C1027.7 701 999.3 720 1005 739C1010.7 758 1050.3 777 1053.5 796C1056.7 815 1023.3 834 1016.3 852.8C1009.3 871.7 1028.7 890.3 1038 909.2C1047.3 928 1046.7 947 1040.7 966C1034.7 985 1023.3 1004 1020 1023C1016.7 1042 1021.3 1061 1023.7 1070.5L1026 1080L0 1080L0 1070.5C0 1061 0 1042 0 1023C0 1004 0 985 0 966C0 947 0 928 0 909.2C0 890.3 0 871.7 0 852.8C0 834 0 815 0 796C0 777 0 758 0 739C0 720 0 701 0 682C0 663 0 644 0 625C0 606 0 587 0 568.2C0 549.3 0 530.7 0 511.8C0 493 0 474 0 455C0 436 0 417 0 398C0 379 0 360 0 341C0 322 0 303 0 284C0 265 0 246 0 227.2C0 208.3 0 189.7 0 170.8C0 152 0 133 0 114C0 95 0 76 0 57C0 38 0 19 0 9.5L0 0Z" fill="#00e7b1"></path><path d="M852 0L869.5 9.5C887 19 922 38 922.5 57C923 76 889 95 868.3 114C847.7 133 840.3 152 850.5 170.8C860.7 189.7 888.3 208.3 906.2 227.2C924 246 932 265 923.2 284C914.3 303 888.7 322 885 341C881.3 360 899.7 379 892.3 398C885 417 852 436 846.3 455C840.7 474 862.3 493 883 511.8C903.7 530.7 923.3 549.3 937.3 568.2C951.3 587 959.7 606 943.5 625C927.3 644 886.7 663 868.2 682C849.7 701 853.3 720 873.5 739C893.7 758 930.3 777 931.3 796C932.3 815 897.7 834 873.3 852.8C849 871.7 835 890.3 850.8 909.2C866.7 928 912.3 947 933.7 966C955 985 952 1004 937.8 1023C923.7 1042 898.3 1061 885.7 1070.5L873 1080L0 1080L0 1070.5C0 1061 0 1042 0 1023C0 1004 0 985 0 966C0 947 0 928 0 909.2C0 890.3 0 871.7 0 852.8C0 834 0 815 0 796C0 777 0 758 0 739C0 720 0 701 0 682C0 663 0 644 0 625C0 606 0 587 0 568.2C0 549.3 0 530.7 0 511.8C0 493 0 474 0 455C0 436 0 417 0 398C0 379 0 360 0 341C0 322 0 303 0 284C0 265 0 246 0 227.2C0 208.3 0 189.7 0 170.8C0 152 0 133 0 114C0 95 0 76 0 57C0 38 0 19 0 9.5L0 0Z" fill="#00d3da"></path><path d="M713 0L724.3 9.5C735.7 19 758.3 38 777.3 57C796.3 76 811.7 95 823.2 114C834.7 133 842.3 152 829.8 170.8C817.3 189.7 784.7 208.3 779.3 227.2C774 246 796 265 790.2 284C784.3 303 750.7 322 750.2 341C749.7 360 782.3 379 797.8 398C813.3 417 811.7 436 799.8 455C788 474 766 493 765 511.8C764 530.7 784 549.3 783 568.2C782 587 760 606 757 625C754 644 770 663 788.8 682C807.7 701 829.3 720 836.2 739C843 758 835 777 822.8 796C810.7 815 794.3 834 785.8 852.8C777.3 871.7 776.7 890.3 777.8 909.2C779 928 782 947 790.2 966C798.3 985 811.7 1004 806.2 1023C800.7 1042 776.3 1061 764.2 1070.5L752 1080L0 1080L0 1070.5C0 1061 0 1042 0 1023C0 1004 0 985 0 966C0 947 0 928 0 909.2C0 890.3 0 871.7 0 852.8C0 834 0 815 0 796C0 777 0 758 0 739C0 720 0 701 0 682C0 663 0 644 0 625C0 606 0 587 0 568.2C0 549.3 0 530.7 0 511.8C0 493 0 474 0 455C0 436 0 417 0 398C0 379 0 360 0 341C0 322 0 303 0 284C0 265 0 246 0 227.2C0 208.3 0 189.7 0 170.8C0 152 0 133 0 114C0 95 0 76 0 57C0 38 0 19 0 9.5L0 0Z" fill="#00bdef"></path><path d="M736 0L714.3 9.5C692.7 19 649.3 38 632.7 57C616 76 626 95 627.3 114C628.7 133 621.3 152 632 170.8C642.7 189.7 671.3 208.3 678.3 227.2C685.3 246 670.7 265 676.8 284C683 303 710 322 722 341C734 360 731 379 708.3 398C685.7 417 643.3 436 640.3 455C637.3 474 673.7 493 690.8 511.8C708 530.7 706 549.3 700.7 568.2C695.3 587 686.7 606 684.3 625C682 644 686 663 678.5 682C671 701 652 720 654.7 739C657.3 758 681.7 777 695 796C708.3 815 710.7 834 706.7 852.8C702.7 871.7 692.3 890.3 682.7 909.2C673 928 664 947 661.2 966C658.3 985 661.7 1004 669.3 1023C677 1042 689 1061 695 1070.5L701 1080L0 1080L0 1070.5C0 1061 0 1042 0 1023C0 1004 0 985 0 966C0 947 0 928 0 909.2C0 890.3 0 871.7 0 852.8C0 834 0 815 0 796C0 777 0 758 0 739C0 720 0 701 0 682C0 663 0 644 0 625C0 606 0 587 0 568.2C0 549.3 0 530.7 0 511.8C0 493 0 474 0 455C0 436 0 417 0 398C0 379 0 360 0 341C0 322 0 303 0 284C0 265 0 246 0 227.2C0 208.3 0 189.7 0 170.8C0 152 0 133 0 114C0 95 0 76 0 57C0 38 0 19 0 9.5L0 0Z" fill="#00a3ea"></path><path d="M539 0L540.5 9.5C542 19 545 38 543.2 57C541.3 76 534.7 95 527.8 114C521 133 514 152 514.8 170.8C515.7 189.7 524.3 208.3 522.8 227.2C521.3 246 509.7 265 512.5 284C515.3 303 532.7 322 553.8 341C575 360 600 379 601.2 398C602.3 417 579.7 436 558.3 455C537 474 517 493 517.2 511.8C517.3 530.7 537.7 549.3 549.3 568.2C561 587 564 606 553.7 625C543.3 644 519.7 663 512.8 682C506 701 516 720 532.7 739C549.3 758 572.7 777 567.7 796C562.7 815 529.3 834 515.8 852.8C502.3 871.7 508.7 890.3 517.2 909.2C525.7 928 536.3 947 555.3 966C574.3 985 601.7 1004 601.8 1023C602 1042 575 1061 561.5 1070.5L548 1080L0 1080L0 1070.5C0 1061 0 1042 0 1023C0 1004 0 985 0 966C0 947 0 928 0 909.2C0 890.3 0 871.7 0 852.8C0 834 0 815 0 796C0 777 0 758 0 739C0 720 0 701 0 682C0 663 0 644 0 625C0 606 0 587 0 568.2C0 549.3 0 530.7 0 511.8C0 493 0 474 0 455C0 436 0 417 0 398C0 379 0 360 0 341C0 322 0 303 0 284C0 265 0 246 0 227.2C0 208.3 0 189.7 0 170.8C0 152 0 133 0 114C0 95 0 76 0 57C0 38 0 19 0 9.5L0 0Z" fill="#0087d7"></path><path d="M465 0L454.7 9.5C444.3 19 423.7 38 429.3 57C435 76 467 95 472.2 114C477.3 133 455.7 152 438.5 170.8C421.3 189.7 408.7 208.3 419.3 227.2C430 246 464 265 473.2 284C482.3 303 466.7 322 468.7 341C470.7 360 490.3 379 487 398C483.7 417 457.3 436 439.3 455C421.3 474 411.7 493 415 511.8C418.3 530.7 434.7 549.3 437.2 568.2C439.7 587 428.3 606 436.8 625C445.3 644 473.7 663 470.8 682C468 701 434 720 429.2 739C424.3 758 448.7 777 464.5 796C480.3 815 487.7 834 475.7 852.8C463.7 871.7 432.3 890.3 424 909.2C415.7 928 430.3 947 433.5 966C436.7 985 428.3 1004 437.3 1023C446.3 1042 472.7 1061 485.8 1070.5L499 1080L0 1080L0 1070.5C0 1061 0 1042 0 1023C0 1004 0 985 0 966C0 947 0 928 0 909.2C0 890.3 0 871.7 0 852.8C0 834 0 815 0 796C0 777 0 758 0 739C0 720 0 701 0 682C0 663 0 644 0 625C0 606 0 587 0 568.2C0 549.3 0 530.7 0 511.8C0 493 0 474 0 455C0 436 0 417 0 398C0 379 0 360 0 341C0 322 0 303 0 284C0 265 0 246 0 227.2C0 208.3 0 189.7 0 170.8C0 152 0 133 0 114C0 95 0 76 0 57C0 38 0 19 0 9.5L0 0Z" fill="#016cc4"></path><path d="M340 0L338.7 9.5C337.3 19 334.7 38 343.7 57C352.7 76 373.3 95 368.7 114C364 133 334 152 324 170.8C314 189.7 324 208.3 336.8 227.2C349.7 246 365.3 265 358.7 284C352 303 323 322 313.7 341C304.3 360 314.7 379 328.8 398C343 417 361 436 373 455C385 474 391 493 380.8 511.8C370.7 530.7 344.3 549.3 329 568.2C313.7 587 309.3 606 318.3 625C327.3 644 349.7 663 361.8 682C374 701 376 720 370.2 739C364.3 758 350.7 777 345 796C339.3 815 341.7 834 334.3 852.8C327 871.7 310 890.3 307.8 909.2C305.7 928 318.3 947 333.3 966C348.3 985 365.7 1004 372.2 1023C378.7 1042 374.3 1061 372.2 1070.5L370 1080L0 1080L0 1070.5C0 1061 0 1042 0 1023C0 1004 0 985 0 966C0 947 0 928 0 909.2C0 890.3 0 871.7 0 852.8C0 834 0 815 0 796C0 777 0 758 0 739C0 720 0 701 0 682C0 663 0 644 0 625C0 606 0 587 0 568.2C0 549.3 0 530.7 0 511.8C0 493 0 474 0 455C0 436 0 417 0 398C0 379 0 360 0 341C0 322 0 303 0 284C0 265 0 246 0 227.2C0 208.3 0 189.7 0 170.8C0 152 0 133 0 114C0 95 0 76 0 57C0 38 0 19 0 9.5L0 0Z" fill="#234fae"></path><path d="M257 0L248 9.5C239 19 221 38 221.7 57C222.3 76 241.7 95 245.7 114C249.7 133 238.3 152 226.2 170.8C214 189.7 201 208.3 194.2 227.2C187.3 246 186.7 265 187.7 284C188.7 303 191.3 322 205.7 341C220 360 246 379 256 398C266 417 260 436 247.3 455C234.7 474 215.3 493 205.2 511.8C195 530.7 194 549.3 199.7 568.2C205.3 587 217.7 606 231.5 625C245.3 644 260.7 663 260.5 682C260.3 701 244.7 720 240.2 739C235.7 758 242.3 777 243.2 796C244 815 239 834 240.3 852.8C241.7 871.7 249.3 890.3 251.3 909.2C253.3 928 249.7 947 249 966C248.3 985 250.7 1004 242.8 1023C235 1042 217 1061 208 1070.5L199 1080L0 1080L0 1070.5C0 1061 0 1042 0 1023C0 1004 0 985 0 966C0 947 0 928 0 909.2C0 890.3 0 871.7 0 852.8C0 834 0 815 0 796C0 777 0 758 0 739C0 720 0 701 0 682C0 663 0 644 0 625C0 606 0 587 0 568.2C0 549.3 0 530.7 0 511.8C0 493 0 474 0 455C0 436 0 417 0 398C0 379 0 360 0 341C0 322 0 303 0 284C0 265 0 246 0 227.2C0 208.3 0 189.7 0 170.8C0 152 0 133 0 114C0 95 0 76 0 57C0 38 0 19 0 9.5L0 0Z" fill="#353194"></path><path d="M95 0L92.5 9.5C90 19 85 38 89.8 57C94.7 76 109.3 95 109.2 114C109 133 94 152 97.2 170.8C100.3 189.7 121.7 208.3 130.7 227.2C139.7 246 136.3 265 126.3 284C116.3 303 99.7 322 99.2 341C98.7 360 114.3 379 127 398C139.7 417 149.3 436 152.5 455C155.7 474 152.3 493 143.8 511.8C135.3 530.7 121.7 549.3 121.8 568.2C122 587 136 606 146.3 625C156.7 644 163.3 663 160.2 682C157 701 144 720 139 739C134 758 137 777 133.7 796C130.3 815 120.7 834 122.7 852.8C124.7 871.7 138.3 890.3 140.7 909.2C143 928 134 947 129.2 966C124.3 985 123.7 1004 131 1023C138.3 1042 153.7 1061 161.3 1070.5L169 1080L0 1080L0 1070.5C0 1061 0 1042 0 1023C0 1004 0 985 0 966C0 947 0 928 0 909.2C0 890.3 0 871.7 0 852.8C0 834 0 815 0 796C0 777 0 758 0 739C0 720 0 701 0 682C0 663 0 644 0 625C0 606 0 587 0 568.2C0 549.3 0 530.7 0 511.8C0 493 0 474 0 455C0 436 0 417 0 398C0 379 0 360 0 341C0 322 0 303 0 284C0 265 0 246 0 227.2C0 208.3 0 189.7 0 170.8C0 152 0 133 0 114C0 95 0 76 0 57C0 38 0 19 0 9.5L0 0Z" fill="#3f0576"></path></svg>