<svg id="visual" viewBox="0 0 1920 1080" width="1920" height="1080" xmlns="http://www.w3.org/2000/svg" xmlns:xlink="http://www.w3.org/1999/xlink" version="1.1"><rect x="0" y="0" width="1920" height="1080" fill="#ffffff"></rect><path d="M628 0L616.8 11.3C605.7 22.7 583.3 45.3 575.3 67.8C567.3 90.3 573.7 112.7 589.5 135.2C605.3 157.7 630.7 180.3 643.7 202.8C656.7 225.3 657.3 247.7 631.5 270.2C605.7 292.7 553.3 315.3 537.2 337.8C521 360.3 541 382.7 543.7 405.2C546.3 427.7 531.7 450.3 540.3 472.8C549 495.3 581 517.7 588 540.2C595 562.7 577 585.3 563.8 607.8C550.7 630.3 542.3 652.7 547.7 675.2C553 697.7 572 720.3 588.5 742.8C605 765.3 619 787.7 607.7 810.2C596.3 832.7 559.7 855.3 555.3 877.8C551 900.3 579 922.7 577 945.2C575 967.7 543 990.3 530.5 1012.8C518 1035.3 525 1057.7 528.5 1068.8L532 1080L0 1080L0 1068.8C0 1057.7 0 1035.3 0 1012.8C0 990.3 0 967.7 0 945.2C0 922.7 0 900.3 0 877.8C0 855.3 0 832.7 0 810.2C0 787.7 0 765.3 0 742.8C0 720.3 0 697.7 0 675.2C0 652.7 0 630.3 0 607.8C0 585.3 0 562.7 0 540.2C0 517.7 0 495.3 0 472.8C0 450.3 0 427.7 0 405.2C0 382.7 0 360.3 0 337.8C0 315.3 0 292.7 0 270.2C0 247.7 0 225.3 0 202.8C0 180.3 0 157.7 0 135.2C0 112.7 0 90.3 0 67.8C0 45.3 0 22.7 0 11.3L0 0Z" fill="#3cf579"></path><path d="M443 0L442.7 11.3C442.3 22.7 441.7 45.3 443.3 67.8C445 90.3 449 112.7 443.8 135.2C438.7 157.7 424.3 180.3 441.3 202.8C458.3 225.3 506.7 247.7 505.8 270.2C505 292.7 455 315.3 455.5 337.8C456 360.3 507 382.7 525 405.2C543 427.7 528 450.3 529.3 472.8C530.7 495.3 548.3 517.7 547.7 540.2C547 562.7 528 585.3 513 607.8C498 630.3 487 652.7 480.8 675.2C474.7 697.7 473.3 720.3 484.8 742.8C496.3 765.3 520.7 787.7 526.2 810.2C531.7 832.7 518.3 855.3 500.5 877.8C482.7 900.3 460.3 922.7 458.7 945.2C457 967.7 476 990.3 484.2 1012.8C492.3 1035.3 489.7 1057.7 488.3 1068.8L487 1080L0 1080L0 1068.8C0 1057.7 0 1035.3 0 1012.8C0 990.3 0 967.7 0 945.2C0 922.7 0 900.3 0 877.8C0 855.3 0 832.7 0 810.2C0 787.7 0 765.3 0 742.8C0 720.3 0 697.7 0 675.2C0 652.7 0 630.3 0 607.8C0 585.3 0 562.7 0 540.2C0 517.7 0 495.3 0 472.8C0 450.3 0 427.7 0 405.2C0 382.7 0 360.3 0 337.8C0 315.3 0 292.7 0 270.2C0 247.7 0 225.3 0 202.8C0 180.3 0 157.7 0 135.2C0 112.7 0 90.3 0 67.8C0 45.3 0 22.7 0 11.3L0 0Z" fill="#00d8d3"></path><path d="M389 0L380.7 11.3C372.3 22.7 355.7 45.3 350 67.8C344.3 90.3 349.7 112.7 369.8 135.2C390 157.7 425 180.3 418.2 202.8C411.3 225.3 362.7 247.7 354.3 270.2C346 292.7 378 315.3 403.3 337.8C428.7 360.3 447.3 382.7 455.2 405.2C463 427.7 460 450.3 444.7 472.8C429.3 495.3 401.7 517.7 382 540.2C362.3 562.7 350.7 585.3 350 607.8C349.3 630.3 359.7 652.7 374.5 675.2C389.3 697.7 408.7 720.3 403.5 742.8C398.3 765.3 368.7 787.7 369.3 810.2C370 832.7 401 855.3 404.5 877.8C408 900.3 384 922.7 372.2 945.2C360.3 967.7 360.7 990.3 353.5 1012.8C346.3 1035.3 331.7 1057.7 324.3 1068.8L317 1080L0 1080L0 1068.8C0 1057.7 0 1035.3 0 1012.8C0 990.3 0 967.7 0 945.2C0 922.7 0 900.3 0 877.8C0 855.3 0 832.7 0 810.2C0 787.7 0 765.3 0 742.8C0 720.3 0 697.7 0 675.2C0 652.7 0 630.3 0 607.8C0 585.3 0 562.7 0 540.2C0 517.7 0 495.3 0 472.8C0 450.3 0 427.7 0 405.2C0 382.7 0 360.3 0 337.8C0 315.3 0 292.7 0 270.2C0 247.7 0 225.3 0 202.8C0 180.3 0 157.7 0 135.2C0 112.7 0 90.3 0 67.8C0 45.3 0 22.7 0 11.3L0 0Z" fill="#00adef"></path><path d="M239 0L258.2 11.3C277.3 22.7 315.7 45.3 322.7 67.8C329.7 90.3 305.3 112.7 298 135.2C290.7 157.7 300.3 180.3 299.7 202.8C299 225.3 288 247.7 275.3 270.2C262.7 292.7 248.3 315.3 243.7 337.8C239 360.3 244 382.7 247.2 405.2C250.3 427.7 251.7 450.3 266.7 472.8C281.7 495.3 310.3 517.7 319.2 540.2C328 562.7 317 585.3 298.2 607.8C279.3 630.3 252.7 652.7 249.5 675.2C246.3 697.7 266.7 720.3 282.7 742.8C298.7 765.3 310.3 787.7 320.8 810.2C331.3 832.7 340.7 855.3 346.8 877.8C353 900.3 356 922.7 357.2 945.2C358.3 967.7 357.7 990.3 348.3 1012.8C339 1035.3 321 1057.7 312 1068.8L303 1080L0 1080L0 1068.8C0 1057.7 0 1035.3 0 1012.8C0 990.3 0 967.7 0 945.2C0 922.7 0 900.3 0 877.8C0 855.3 0 832.7 0 810.2C0 787.7 0 765.3 0 742.8C0 720.3 0 697.7 0 675.2C0 652.7 0 630.3 0 607.8C0 585.3 0 562.7 0 540.2C0 517.7 0 495.3 0 472.8C0 450.3 0 427.7 0 405.2C0 382.7 0 360.3 0 337.8C0 315.3 0 292.7 0 270.2C0 247.7 0 225.3 0 202.8C0 180.3 0 157.7 0 135.2C0 112.7 0 90.3 0 67.8C0 45.3 0 22.7 0 11.3L0 0Z" fill="#007cd0"></path><path d="M201 0L191.7 11.3C182.3 22.7 163.7 45.3 167.8 67.8C172 90.3 199 112.7 216.3 135.2C233.7 157.7 241.3 180.3 241.7 202.8C242 225.3 235 247.7 233 270.2C231 292.7 234 315.3 226.8 337.8C219.7 360.3 202.3 382.7 195.8 405.2C189.3 427.7 193.7 450.3 205.3 472.8C217 495.3 236 517.7 233.8 540.2C231.7 562.7 208.3 585.3 200.2 607.8C192 630.3 199 652.7 210.7 675.2C222.3 697.7 238.7 720.3 241.3 742.8C244 765.3 233 787.7 224.5 810.2C216 832.7 210 855.3 203.7 877.8C197.3 900.3 190.7 922.7 196 945.2C201.3 967.7 218.7 990.3 226.7 1012.8C234.7 1035.3 233.3 1057.7 232.7 1068.8L232 1080L0 1080L0 1068.8C0 1057.7 0 1035.3 0 1012.8C0 990.3 0 967.7 0 945.2C0 922.7 0 900.3 0 877.8C0 855.3 0 832.7 0 810.2C0 787.7 0 765.3 0 742.8C0 720.3 0 697.7 0 675.2C0 652.7 0 630.3 0 607.8C0 585.3 0 562.7 0 540.2C0 517.7 0 495.3 0 472.8C0 450.3 0 427.7 0 405.2C0 382.7 0 360.3 0 337.8C0 315.3 0 292.7 0 270.2C0 247.7 0 225.3 0 202.8C0 180.3 0 157.7 0 135.2C0 112.7 0 90.3 0 67.8C0 45.3 0 22.7 0 11.3L0 0Z" fill="#2749a9"></path><path d="M121 0L123 11.3C125 22.7 129 45.3 120.5 67.8C112 90.3 91 112.7 92.5 135.2C94 157.7 118 180.3 124.5 202.8C131 225.3 120 247.7 114 270.2C108 292.7 107 315.3 99.2 337.8C91.3 360.3 76.7 382.7 81.7 405.2C86.7 427.7 111.3 450.3 124.7 472.8C138 495.3 140 517.7 143.7 540.2C147.3 562.7 152.7 585.3 151 607.8C149.3 630.3 140.7 652.7 140.3 675.2C140 697.7 148 720.3 149.3 742.8C150.7 765.3 145.3 787.7 146.2 810.2C147 832.7 154 855.3 150.2 877.8C146.3 900.3 131.7 922.7 122.2 945.2C112.7 967.7 108.3 990.3 110.8 1012.8C113.3 1035.3 122.7 1057.7 127.3 1068.8L132 1080L0 1080L0 1068.8C0 1057.7 0 1035.3 0 1012.8C0 990.3 0 967.7 0 945.2C0 922.7 0 900.3 0 877.8C0 855.3 0 832.7 0 810.2C0 787.7 0 765.3 0 742.8C0 720.3 0 697.7 0 675.2C0 652.7 0 630.3 0 607.8C0 585.3 0 562.7 0 540.2C0 517.7 0 495.3 0 472.8C0 450.3 0 427.7 0 405.2C0 382.7 0 360.3 0 337.8C0 315.3 0 292.7 0 270.2C0 247.7 0 225.3 0 202.8C0 180.3 0 157.7 0 135.2C0 112.7 0 90.3 0 67.8C0 45.3 0 22.7 0 11.3L0 0Z" fill="#3f0576"></path></svg>