<svg id="visual" viewBox="0 0 1920 1080" width="1920" height="1080" xmlns="http://www.w3.org/2000/svg" xmlns:xlink="http://www.w3.org/1999/xlink" version="1.1"><rect x="0" y="0" width="1920" height="1080" fill="#001220"></rect><path d="M0 807L22.8 790.7C45.7 774.3 91.3 741.7 137 730.3C182.7 719 228.3 729 274 752.3C319.7 775.7 365.3 812.3 411.2 815.5C457 818.7 503 788.3 548.8 778.3C594.7 768.3 640.3 778.7 686 787.8C731.7 797 777.3 805 823 800.7C868.7 796.3 914.3 779.7 960 782.5C1005.7 785.3 1051.3 807.7 1097 822.8C1142.7 838 1188.3 846 1234 836.7C1279.7 827.3 1325.3 800.7 1371.2 801C1417 801.3 1463 828.7 1508.8 841.3C1554.7 854 1600.3 852 1646 829.3C1691.7 806.7 1737.3 763.3 1783 746.5C1828.7 729.7 1874.3 739.3 1897.2 744.2L1920 749L1920 1081L1897.2 1081C1874.3 1081 1828.7 1081 1783 1081C1737.3 1081 1691.7 1081 1646 1081C1600.3 1081 1554.7 1081 1508.8 1081C1463 1081 1417 1081 1371.2 1081C1325.3 1081 1279.7 1081 1234 1081C1188.3 1081 1142.7 1081 1097 1081C1051.3 1081 1005.7 1081 960 1081C914.3 1081 868.7 1081 823 1081C777.3 1081 731.7 1081 686 1081C640.3 1081 594.7 1081 548.8 1081C503 1081 457 1081 411.2 1081C365.3 1081 319.7 1081 274 1081C228.3 1081 182.7 1081 137 1081C91.3 1081 45.7 1081 22.8 1081L0 1081Z" fill="#3cf579"></path><path d="M0 749L22.8 768.8C45.7 788.7 91.3 828.3 137 843.2C182.7 858 228.3 848 274 841.2C319.7 834.3 365.3 830.7 411.2 820.8C457 811 503 795 548.8 791.3C594.7 787.7 640.3 796.3 686 805C731.7 813.7 777.3 822.3 823 815.7C868.7 809 914.3 787 960 796C1005.7 805 1051.3 845 1097 864.2C1142.7 883.3 1188.3 881.7 1234 867.7C1279.7 853.7 1325.3 827.3 1371.2 807.5C1417 787.7 1463 774.3 1508.8 775.5C1554.7 776.7 1600.3 792.3 1646 799.5C1691.7 806.7 1737.3 805.3 1783 805.8C1828.7 806.3 1874.3 808.7 1897.2 809.8L1920 811L1920 1081L1897.2 1081C1874.3 1081 1828.7 1081 1783 1081C1737.3 1081 1691.7 1081 1646 1081C1600.3 1081 1554.7 1081 1508.8 1081C1463 1081 1417 1081 1371.2 1081C1325.3 1081 1279.7 1081 1234 1081C1188.3 1081 1142.7 1081 1097 1081C1051.3 1081 1005.7 1081 960 1081C914.3 1081 868.7 1081 823 1081C777.3 1081 731.7 1081 686 1081C640.3 1081 594.7 1081 548.8 1081C503 1081 457 1081 411.2 1081C365.3 1081 319.7 1081 274 1081C228.3 1081 182.7 1081 137 1081C91.3 1081 45.7 1081 22.8 1081L0 1081Z" fill="#00e1be"></path><path d="M0 817L22.8 814.7C45.7 812.3 91.3 807.7 137 819.8C182.7 832 228.3 861 274 861.5C319.7 862 365.3 834 411.2 818C457 802 503 798 548.8 811.7C594.7 825.3 640.3 856.7 686 859.8C731.7 863 777.3 838 823 825.8C868.7 813.7 914.3 814.3 960 825.7C1005.7 837 1051.3 859 1097 873.8C1142.7 888.7 1188.3 896.3 1234 888.5C1279.7 880.7 1325.3 857.3 1371.2 852.8C1417 848.3 1463 862.7 1508.8 856.2C1554.7 849.7 1600.3 822.3 1646 828.5C1691.7 834.7 1737.3 874.3 1783 892.3C1828.7 910.3 1874.3 906.7 1897.2 904.8L1920 903L1920 1081L1897.2 1081C1874.3 1081 1828.7 1081 1783 1081C1737.3 1081 1691.7 1081 1646 1081C1600.3 1081 1554.7 1081 1508.8 1081C1463 1081 1417 1081 1371.2 1081C1325.3 1081 1279.7 1081 1234 1081C1188.3 1081 1142.7 1081 1097 1081C1051.3 1081 1005.7 1081 960 1081C914.3 1081 868.7 1081 823 1081C777.3 1081 731.7 1081 686 1081C640.3 1081 594.7 1081 548.8 1081C503 1081 457 1081 411.2 1081C365.3 1081 319.7 1081 274 1081C228.3 1081 182.7 1081 137 1081C91.3 1081 45.7 1081 22.8 1081L0 1081Z" fill="#00c7e9"></path><path d="M0 909L22.8 906.5C45.7 904 91.3 899 137 904.5C182.7 910 228.3 926 274 915.3C319.7 904.7 365.3 867.3 411.2 859.2C457 851 503 872 548.8 879.2C594.7 886.3 640.3 879.7 686 885.5C731.7 891.3 777.3 909.7 823 921C868.7 932.3 914.3 936.7 960 927.7C1005.7 918.7 1051.3 896.3 1097 889.3C1142.7 882.3 1188.3 890.7 1234 887.7C1279.7 884.7 1325.3 870.3 1371.2 876.3C1417 882.3 1463 908.7 1508.8 918.8C1554.7 929 1600.3 923 1646 910.2C1691.7 897.3 1737.3 877.7 1783 868.3C1828.7 859 1874.3 860 1897.2 860.5L1920 861L1920 1081L1897.2 1081C1874.3 1081 1828.7 1081 1783 1081C1737.3 1081 1691.7 1081 1646 1081C1600.3 1081 1554.7 1081 1508.8 1081C1463 1081 1417 1081 1371.2 1081C1325.3 1081 1279.7 1081 1234 1081C1188.3 1081 1142.7 1081 1097 1081C1051.3 1081 1005.7 1081 960 1081C914.3 1081 868.7 1081 823 1081C777.3 1081 731.7 1081 686 1081C640.3 1081 594.7 1081 548.8 1081C503 1081 457 1081 411.2 1081C365.3 1081 319.7 1081 274 1081C228.3 1081 182.7 1081 137 1081C91.3 1081 45.7 1081 22.8 1081L0 1081Z" fill="#00a6ec"></path><path d="M0 967L22.8 953.7C45.7 940.3 91.3 913.7 137 912.8C182.7 912 228.3 937 274 939.8C319.7 942.7 365.3 923.3 411.2 920.2C457 917 503 930 548.8 930.3C594.7 930.7 640.3 918.3 686 914.2C731.7 910 777.3 914 823 922.8C868.7 931.7 914.3 945.3 960 943.2C1005.7 941 1051.3 923 1097 922.3C1142.7 921.7 1188.3 938.3 1234 947C1279.7 955.7 1325.3 956.3 1371.2 956C1417 955.7 1463 954.3 1508.8 942.2C1554.7 930 1600.3 907 1646 900.8C1691.7 894.7 1737.3 905.3 1783 907.8C1828.7 910.3 1874.3 904.7 1897.2 901.8L1920 899L1920 1081L1897.2 1081C1874.3 1081 1828.7 1081 1783 1081C1737.3 1081 1691.7 1081 1646 1081C1600.3 1081 1554.7 1081 1508.8 1081C1463 1081 1417 1081 1371.2 1081C1325.3 1081 1279.7 1081 1234 1081C1188.3 1081 1142.7 1081 1097 1081C1051.3 1081 1005.7 1081 960 1081C914.3 1081 868.7 1081 823 1081C777.3 1081 731.7 1081 686 1081C640.3 1081 594.7 1081 548.8 1081C503 1081 457 1081 411.2 1081C365.3 1081 319.7 1081 274 1081C228.3 1081 182.7 1081 137 1081C91.3 1081 45.7 1081 22.8 1081L0 1081Z" fill="#0083d5"></path><path d="M0 975L22.8 979.2C45.7 983.3 91.3 991.7 137 987.5C182.7 983.3 228.3 966.7 274 960.2C319.7 953.7 365.3 957.3 411.2 956.5C457 955.7 503 950.3 548.8 951.7C594.7 953 640.3 961 686 963.8C731.7 966.7 777.3 964.3 823 962.7C868.7 961 914.3 960 960 965.5C1005.7 971 1051.3 983 1097 976C1142.7 969 1188.3 943 1234 940.7C1279.7 938.3 1325.3 959.7 1371.2 971.3C1417 983 1463 985 1508.8 981.8C1554.7 978.7 1600.3 970.3 1646 960.5C1691.7 950.7 1737.3 939.3 1783 941.7C1828.7 944 1874.3 960 1897.2 968L1920 976L1920 1081L1897.2 1081C1874.3 1081 1828.7 1081 1783 1081C1737.3 1081 1691.7 1081 1646 1081C1600.3 1081 1554.7 1081 1508.8 1081C1463 1081 1417 1081 1371.2 1081C1325.3 1081 1279.7 1081 1234 1081C1188.3 1081 1142.7 1081 1097 1081C1051.3 1081 1005.7 1081 960 1081C914.3 1081 868.7 1081 823 1081C777.3 1081 731.7 1081 686 1081C640.3 1081 594.7 1081 548.8 1081C503 1081 457 1081 411.2 1081C365.3 1081 319.7 1081 274 1081C228.3 1081 182.7 1081 137 1081C91.3 1081 45.7 1081 22.8 1081L0 1081Z" fill="#125fbb"></path><path d="M0 960L22.8 969.3C45.7 978.7 91.3 997.3 137 1008.5C182.7 1019.7 228.3 1023.3 274 1018C319.7 1012.7 365.3 998.3 411.2 997.8C457 997.3 503 1010.7 548.8 1013.8C594.7 1017 640.3 1010 686 1004.7C731.7 999.3 777.3 995.7 823 996.8C868.7 998 914.3 1004 960 1007.7C1005.7 1011.3 1051.3 1012.7 1097 1016.2C1142.7 1019.7 1188.3 1025.3 1234 1017.8C1279.7 1010.3 1325.3 989.7 1371.2 984.3C1417 979 1463 989 1508.8 988.5C1554.7 988 1600.3 977 1646 976.8C1691.7 976.7 1737.3 987.3 1783 989.5C1828.7 991.7 1874.3 985.3 1897.2 982.2L1920 979L1920 1081L1897.2 1081C1874.3 1081 1828.7 1081 1783 1081C1737.3 1081 1691.7 1081 1646 1081C1600.3 1081 1554.7 1081 1508.8 1081C1463 1081 1417 1081 1371.2 1081C1325.3 1081 1279.7 1081 1234 1081C1188.3 1081 1142.7 1081 1097 1081C1051.3 1081 1005.7 1081 960 1081C914.3 1081 868.7 1081 823 1081C777.3 1081 731.7 1081 686 1081C640.3 1081 594.7 1081 548.8 1081C503 1081 457 1081 411.2 1081C365.3 1081 319.7 1081 274 1081C228.3 1081 182.7 1081 137 1081C91.3 1081 45.7 1081 22.8 1081L0 1081Z" fill="#313a9c"></path><path d="M0 1012L22.8 1018.3C45.7 1024.7 91.3 1037.3 137 1042C182.7 1046.7 228.3 1043.3 274 1040.8C319.7 1038.3 365.3 1036.7 411.2 1030.5C457 1024.3 503 1013.7 548.8 1012.5C594.7 1011.3 640.3 1019.7 686 1026.8C731.7 1034 777.3 1040 823 1042.8C868.7 1045.7 914.3 1045.3 960 1047.3C1005.7 1049.3 1051.3 1053.7 1097 1054.8C1142.7 1056 1188.3 1054 1234 1045.2C1279.7 1036.3 1325.3 1020.7 1371.2 1018.2C1417 1015.7 1463 1026.3 1508.8 1027.7C1554.7 1029 1600.3 1021 1646 1019.3C1691.7 1017.7 1737.3 1022.3 1783 1026.2C1828.7 1030 1874.3 1033 1897.2 1034.5L1920 1036L1920 1081L1897.2 1081C1874.3 1081 1828.7 1081 1783 1081C1737.3 1081 1691.7 1081 1646 1081C1600.3 1081 1554.7 1081 1508.8 1081C1463 1081 1417 1081 1371.2 1081C1325.3 1081 1279.7 1081 1234 1081C1188.3 1081 1142.7 1081 1097 1081C1051.3 1081 1005.7 1081 960 1081C914.3 1081 868.7 1081 823 1081C777.3 1081 731.7 1081 686 1081C640.3 1081 594.7 1081 548.8 1081C503 1081 457 1081 411.2 1081C365.3 1081 319.7 1081 274 1081C228.3 1081 182.7 1081 137 1081C91.3 1081 45.7 1081 22.8 1081L0 1081Z" fill="#3f0576"></path></svg>