<svg id="visual" viewBox="0 0 960 540" width="960" height="540" xmlns="http://www.w3.org/2000/svg" xmlns:xlink="http://www.w3.org/1999/xlink" version="1.1"><rect x="0" y="0" width="960" height="540" fill="#001220"></rect><path d="M0 403L11.5 394.8C23 386.7 46 370.3 68.8 364.7C91.7 359 114.3 364 137.2 375.7C160 387.3 183 405.7 205.8 407.3C228.7 409 251.3 394 274.2 389C297 384 320 389 342.8 393.5C365.7 398 388.3 402 411.2 399.8C434 397.7 457 389.3 480 390.8C503 392.3 526 403.7 548.8 411.2C571.7 418.7 594.3 422.3 617.2 417.7C640 413 663 400 685.8 400.2C708.7 400.3 731.3 413.7 754.2 420C777 426.3 800 425.7 822.8 414.5C845.7 403.3 868.3 381.7 891.2 373.2C914 364.7 937 369.3 948.5 371.7L960 374L960 541L948.5 541C937 541 914 541 891.2 541C868.3 541 845.7 541 822.8 541C800 541 777 541 754.2 541C731.3 541 708.7 541 685.8 541C663 541 640 541 617.2 541C594.3 541 571.7 541 548.8 541C526 541 503 541 480 541C457 541 434 541 411.2 541C388.3 541 365.7 541 342.8 541C320 541 297 541 274.2 541C251.3 541 228.7 541 205.8 541C183 541 160 541 137.2 541C114.3 541 91.7 541 68.8 541C46 541 23 541 11.5 541L0 541Z" fill="#3cf579"></path><path d="M0 374L11.5 384C23 394 46 414 68.8 421.3C91.7 428.7 114.3 423.3 137.2 419.8C160 416.3 183 414.7 205.8 409.8C228.7 405 251.3 397 274.2 395.2C297 393.3 320 397.7 342.8 402C365.7 406.3 388.3 410.7 411.2 407.3C434 404 457 393 480 397.5C503 402 526 422 548.8 431.7C571.7 441.3 594.3 440.7 617.2 433.7C640 426.7 663 413.3 685.8 403.3C708.7 393.3 731.3 386.7 754.2 387.2C777 387.7 800 395.3 822.8 399C845.7 402.7 868.3 402.3 891.2 402.7C914 403 937 404 948.5 404.5L960 405L960 541L948.5 541C937 541 914 541 891.2 541C868.3 541 845.7 541 822.8 541C800 541 777 541 754.2 541C731.3 541 708.7 541 685.8 541C663 541 640 541 617.2 541C594.3 541 571.7 541 548.8 541C526 541 503 541 480 541C457 541 434 541 411.2 541C388.3 541 365.7 541 342.8 541C320 541 297 541 274.2 541C251.3 541 228.7 541 205.8 541C183 541 160 541 137.2 541C114.3 541 91.7 541 68.8 541C46 541 23 541 11.5 541L0 541Z" fill="#00e1be"></path><path d="M0 408L11.5 406.8C23 405.7 46 403.3 68.8 409.3C91.7 415.3 114.3 429.7 137.2 430C160 430.3 183 416.7 205.8 408.7C228.7 400.7 251.3 398.3 274.2 405.2C297 412 320 428 342.8 429.7C365.7 431.3 388.3 418.7 411.2 412.5C434 406.3 457 406.7 480 412.3C503 418 526 429 548.8 436.5C571.7 444 594.3 448 617.2 444C640 440 663 428 685.8 425.7C708.7 423.3 731.3 430.7 754.2 427.5C777 424.3 800 410.7 822.8 413.7C845.7 416.7 868.3 436.3 891.2 445.3C914 454.3 937 452.7 948.5 451.8L960 451L960 541L948.5 541C937 541 914 541 891.2 541C868.3 541 845.7 541 822.8 541C800 541 777 541 754.2 541C731.3 541 708.7 541 685.8 541C663 541 640 541 617.2 541C594.3 541 571.7 541 548.8 541C526 541 503 541 480 541C457 541 434 541 411.2 541C388.3 541 365.7 541 342.8 541C320 541 297 541 274.2 541C251.3 541 228.7 541 205.8 541C183 541 160 541 137.2 541C114.3 541 91.7 541 68.8 541C46 541 23 541 11.5 541L0 541Z" fill="#00c7e9"></path><path d="M0 454L11.5 452.7C23 451.3 46 448.7 68.8 451.5C91.7 454.3 114.3 462.7 137.2 457.5C160 452.3 183 433.7 205.8 429.5C228.7 425.3 251.3 435.7 274.2 439.2C297 442.7 320 439.3 342.8 442.2C365.7 445 388.3 454 411.2 459.7C434 465.3 457 467.7 480 463.2C503 458.7 526 447.3 548.8 443.8C571.7 440.3 594.3 444.7 617.2 443.3C640 442 663 435 685.8 438C708.7 441 731.3 454 754.2 459C777 464 800 461 822.8 454.5C845.7 448 868.3 438 891.2 433.3C914 428.7 937 429.3 948.5 429.7L960 430L960 541L948.5 541C937 541 914 541 891.2 541C868.3 541 845.7 541 822.8 541C800 541 777 541 754.2 541C731.3 541 708.7 541 685.8 541C663 541 640 541 617.2 541C594.3 541 571.7 541 548.8 541C526 541 503 541 480 541C457 541 434 541 411.2 541C388.3 541 365.7 541 342.8 541C320 541 297 541 274.2 541C251.3 541 228.7 541 205.8 541C183 541 160 541 137.2 541C114.3 541 91.7 541 68.8 541C46 541 23 541 11.5 541L0 541Z" fill="#00a6ec"></path><path d="M0 483L11.5 476.3C23 469.7 46 456.3 68.8 456C91.7 455.7 114.3 468.3 137.2 469.7C160 471 183 461 205.8 459.3C228.7 457.7 251.3 464.3 274.2 464.5C297 464.7 320 458.3 342.8 456.2C365.7 454 388.3 456 411.2 460.5C434 465 457 472 480 471C503 470 526 461 548.8 460.7C571.7 460.3 594.3 468.7 617.2 473C640 477.3 663 477.7 685.8 477.5C708.7 477.3 731.3 476.7 754.2 470.7C777 464.7 800 453.3 822.8 450.3C845.7 447.3 868.3 452.7 891.2 453.8C914 455 937 452 948.5 450.5L960 449L960 541L948.5 541C937 541 914 541 891.2 541C868.3 541 845.7 541 822.8 541C800 541 777 541 754.2 541C731.3 541 708.7 541 685.8 541C663 541 640 541 617.2 541C594.3 541 571.7 541 548.8 541C526 541 503 541 480 541C457 541 434 541 411.2 541C388.3 541 365.7 541 342.8 541C320 541 297 541 274.2 541C251.3 541 228.7 541 205.8 541C183 541 160 541 137.2 541C114.3 541 91.7 541 68.8 541C46 541 23 541 11.5 541L0 541Z" fill="#0083d5"></path><path d="M0 487L11.5 489C23 491 46 495 68.8 492.8C91.7 490.7 114.3 482.3 137.2 479.2C160 476 183 478 205.8 477.7C228.7 477.3 251.3 474.7 274.2 475.3C297 476 320 480 342.8 481.5C365.7 483 388.3 482 411.2 481.2C434 480.3 457 479.7 480 482.3C503 485 526 491 548.8 487.5C571.7 484 594.3 471 617.2 469.8C640 468.7 663 479.3 685.8 485.2C708.7 491 731.3 492 754.2 490.5C777 489 800 485 822.8 480C845.7 475 868.3 469 891.2 470C914 471 937 479 948.5 483L960 487L960 541L948.5 541C937 541 914 541 891.2 541C868.3 541 845.7 541 822.8 541C800 541 777 541 754.2 541C731.3 541 708.7 541 685.8 541C663 541 640 541 617.2 541C594.3 541 571.7 541 548.8 541C526 541 503 541 480 541C457 541 434 541 411.2 541C388.3 541 365.7 541 342.8 541C320 541 297 541 274.2 541C251.3 541 228.7 541 205.8 541C183 541 160 541 137.2 541C114.3 541 91.7 541 68.8 541C46 541 23 541 11.5 541L0 541Z" fill="#125fbb"></path><path d="M0 479L11.5 483.8C23 488.7 46 498.3 68.8 504C91.7 509.7 114.3 511.3 137.2 508.7C160 506 183 499 205.8 498.7C228.7 498.3 251.3 504.7 274.2 506.2C297 507.7 320 504.3 342.8 501.8C365.7 499.3 388.3 497.7 411.2 498.2C434 498.7 457 501.3 480 503C503 504.7 526 505.3 548.8 507.2C571.7 509 594.3 512 617.2 508.3C640 504.7 663 494.3 685.8 491.7C708.7 489 731.3 494 754.2 493.7C777 493.3 800 487.7 822.8 487.7C845.7 487.7 868.3 493.3 891.2 494.5C914 495.7 937 492.3 948.5 490.7L960 489L960 541L948.5 541C937 541 914 541 891.2 541C868.3 541 845.7 541 822.8 541C800 541 777 541 754.2 541C731.3 541 708.7 541 685.8 541C663 541 640 541 617.2 541C594.3 541 571.7 541 548.8 541C526 541 503 541 480 541C457 541 434 541 411.2 541C388.3 541 365.7 541 342.8 541C320 541 297 541 274.2 541C251.3 541 228.7 541 205.8 541C183 541 160 541 137.2 541C114.3 541 91.7 541 68.8 541C46 541 23 541 11.5 541L0 541Z" fill="#313a9c"></path><path d="M0 506L11.5 509C23 512 46 518 68.8 520.2C91.7 522.3 114.3 520.7 137.2 519.5C160 518.3 183 517.7 205.8 514.7C228.7 511.7 251.3 506.3 274.2 505.8C297 505.3 320 509.7 342.8 513.3C365.7 517 388.3 520 411.2 521.3C434 522.7 457 522.3 480 523.2C503 524 526 526 548.8 526.5C571.7 527 594.3 526 617.2 521.7C640 517.3 663 509.7 685.8 508.5C708.7 507.3 731.3 512.7 754.2 513.3C777 514 800 510 822.8 509.2C845.7 508.3 868.3 510.7 891.2 512.5C914 514.3 937 515.7 948.5 516.3L960 517L960 541L948.5 541C937 541 914 541 891.2 541C868.3 541 845.7 541 822.8 541C800 541 777 541 754.2 541C731.3 541 708.7 541 685.8 541C663 541 640 541 617.2 541C594.3 541 571.7 541 548.8 541C526 541 503 541 480 541C457 541 434 541 411.2 541C388.3 541 365.7 541 342.8 541C320 541 297 541 274.2 541C251.3 541 228.7 541 205.8 541C183 541 160 541 137.2 541C114.3 541 91.7 541 68.8 541C46 541 23 541 11.5 541L0 541Z" fill="#3f0576"></path></svg>