<svg id="visual" viewBox="0 0 1920 910" width="1920" height="910" xmlns="http://www.w3.org/2000/svg" xmlns:xlink="http://www.w3.org/1999/xlink" version="1.1"><rect x="0" y="0" width="1920" height="910" fill="#ffffff"></rect><path d="M973 0L962 13.8C951 27.7 929 55.3 940.2 82.8C951.3 110.3 995.7 137.7 983.5 165.2C971.3 192.7 902.7 220.3 877.5 248C852.3 275.7 870.7 303.3 896.7 331C922.7 358.7 956.3 386.3 939.2 413.8C922 441.3 854 468.7 848.2 496.2C842.3 523.7 898.7 551.3 928 579C957.3 606.7 959.7 634.3 927.5 662C895.3 689.7 828.7 717.3 798.2 744.8C767.7 772.3 773.3 799.7 781 827.2C788.7 854.7 798.3 882.3 803.2 896.2L808 910L0 910L0 896.2C0 882.3 0 854.7 0 827.2C0 799.7 0 772.3 0 744.8C0 717.3 0 689.7 0 662C0 634.3 0 606.7 0 579C0 551.3 0 523.7 0 496.2C0 468.7 0 441.3 0 413.8C0 386.3 0 358.7 0 331C0 303.3 0 275.7 0 248C0 220.3 0 192.7 0 165.2C0 137.7 0 110.3 0 82.8C0 55.3 0 27.7 0 13.8L0 0Z" fill="#c62368"></path><path d="M649 0L657.2 13.8C665.3 27.7 681.7 55.3 706 82.8C730.3 110.3 762.7 137.7 762.7 165.2C762.7 192.7 730.3 220.3 736.3 248C742.3 275.7 786.7 303.3 792.5 331C798.3 358.7 765.7 386.3 738.8 413.8C712 441.3 691 468.7 720.8 496.2C750.7 523.7 831.3 551.3 857.8 579C884.3 606.7 856.7 634.3 843.3 662C830 689.7 831 717.3 847.7 744.8C864.3 772.3 896.7 799.7 888 827.2C879.3 854.7 829.7 882.3 804.8 896.2L780 910L0 910L0 896.2C0 882.3 0 854.7 0 827.2C0 799.7 0 772.3 0 744.8C0 717.3 0 689.7 0 662C0 634.3 0 606.7 0 579C0 551.3 0 523.7 0 496.2C0 468.7 0 441.3 0 413.8C0 386.3 0 358.7 0 331C0 303.3 0 275.7 0 248C0 220.3 0 192.7 0 165.2C0 137.7 0 110.3 0 82.8C0 55.3 0 27.7 0 13.8L0 0Z" fill="#d03267"></path><path d="M643 0L651 13.8C659 27.7 675 55.3 669.8 82.8C664.7 110.3 638.3 137.7 653.7 165.2C669 192.7 726 220.3 734 248C742 275.7 701 303.3 696.3 331C691.7 358.7 723.3 386.3 726.7 413.8C730 441.3 705 468.7 713.7 496.2C722.3 523.7 764.7 551.3 784.7 579C804.7 606.7 802.3 634.3 772 662C741.7 689.7 683.3 717.3 675.3 744.8C667.3 772.3 709.7 799.7 713.2 827.2C716.7 854.7 681.3 882.3 663.7 896.2L646 910L0 910L0 896.2C0 882.3 0 854.7 0 827.2C0 799.7 0 772.3 0 744.8C0 717.3 0 689.7 0 662C0 634.3 0 606.7 0 579C0 551.3 0 523.7 0 496.2C0 468.7 0 441.3 0 413.8C0 386.3 0 358.7 0 331C0 303.3 0 275.7 0 248C0 220.3 0 192.7 0 165.2C0 137.7 0 110.3 0 82.8C0 55.3 0 27.7 0 13.8L0 0Z" fill="#da3f67"></path><path d="M499 0L502.2 13.8C505.3 27.7 511.7 55.3 506 82.8C500.3 110.3 482.7 137.7 489.8 165.2C497 192.7 529 220.3 537.5 248C546 275.7 531 303.3 543.3 331C555.7 358.7 595.3 386.3 597.8 413.8C600.3 441.3 565.7 468.7 566.8 496.2C568 523.7 605 551.3 611 579C617 606.7 592 634.3 579 662C566 689.7 565 717.3 568.5 744.8C572 772.3 580 799.7 570.5 827.2C561 854.7 534 882.3 520.5 896.2L507 910L0 910L0 896.2C0 882.3 0 854.7 0 827.2C0 799.7 0 772.3 0 744.8C0 717.3 0 689.7 0 662C0 634.3 0 606.7 0 579C0 551.3 0 523.7 0 496.2C0 468.7 0 441.3 0 413.8C0 386.3 0 358.7 0 331C0 303.3 0 275.7 0 248C0 220.3 0 192.7 0 165.2C0 137.7 0 110.3 0 82.8C0 55.3 0 27.7 0 13.8L0 0Z" fill="#e34c67"></path><path d="M337 0L352.5 13.8C368 27.7 399 55.3 411.5 82.8C424 110.3 418 137.7 428 165.2C438 192.7 464 220.3 462 248C460 275.7 430 303.3 412.8 331C395.7 358.7 391.3 386.3 399.5 413.8C407.7 441.3 428.3 468.7 429.2 496.2C430 523.7 411 551.3 408.2 579C405.3 606.7 418.7 634.3 424 662C429.3 689.7 426.7 717.3 426.2 744.8C425.7 772.3 427.3 799.7 433.7 827.2C440 854.7 451 882.3 456.5 896.2L462 910L0 910L0 896.2C0 882.3 0 854.7 0 827.2C0 799.7 0 772.3 0 744.8C0 717.3 0 689.7 0 662C0 634.3 0 606.7 0 579C0 551.3 0 523.7 0 496.2C0 468.7 0 441.3 0 413.8C0 386.3 0 358.7 0 331C0 303.3 0 275.7 0 248C0 220.3 0 192.7 0 165.2C0 137.7 0 110.3 0 82.8C0 55.3 0 27.7 0 13.8L0 0Z" fill="#eb5967"></path><path d="M316 0L321.2 13.8C326.3 27.7 336.7 55.3 334 82.8C331.3 110.3 315.7 137.7 299.3 165.2C283 192.7 266 220.3 251.8 248C237.7 275.7 226.3 303.3 245.8 331C265.3 358.7 315.7 386.3 326.2 413.8C336.7 441.3 307.3 468.7 286.7 496.2C266 523.7 254 551.3 244.7 579C235.3 606.7 228.7 634.3 231 662C233.3 689.7 244.7 717.3 244.2 744.8C243.7 772.3 231.3 799.7 238.8 827.2C246.3 854.7 273.7 882.3 287.3 896.2L301 910L0 910L0 896.2C0 882.3 0 854.7 0 827.2C0 799.7 0 772.3 0 744.8C0 717.3 0 689.7 0 662C0 634.3 0 606.7 0 579C0 551.3 0 523.7 0 496.2C0 468.7 0 441.3 0 413.8C0 386.3 0 358.7 0 331C0 303.3 0 275.7 0 248C0 220.3 0 192.7 0 165.2C0 137.7 0 110.3 0 82.8C0 55.3 0 27.7 0 13.8L0 0Z" fill="#f36567"></path><path d="M149 0L162 13.8C175 27.7 201 55.3 212.5 82.8C224 110.3 221 137.7 215.3 165.2C209.7 192.7 201.3 220.3 196.3 248C191.3 275.7 189.7 303.3 189.3 331C189 358.7 190 386.3 183.7 413.8C177.3 441.3 163.7 468.7 150.3 496.2C137 523.7 124 551.3 118.5 579C113 606.7 115 634.3 134 662C153 689.7 189 717.3 191.3 744.8C193.7 772.3 162.3 799.7 143.3 827.2C124.3 854.7 117.7 882.3 114.3 896.2L111 910L0 910L0 896.2C0 882.3 0 854.7 0 827.2C0 799.7 0 772.3 0 744.8C0 717.3 0 689.7 0 662C0 634.3 0 606.7 0 579C0 551.3 0 523.7 0 496.2C0 468.7 0 441.3 0 413.8C0 386.3 0 358.7 0 331C0 303.3 0 275.7 0 248C0 220.3 0 192.7 0 165.2C0 137.7 0 110.3 0 82.8C0 55.3 0 27.7 0 13.8L0 0Z" fill="#fa7268"></path></svg>