<svg id="visual" viewBox="0 0 1920 1080" width="1920" height="1080" xmlns="http://www.w3.org/2000/svg" xmlns:xlink="http://www.w3.org/1999/xlink" version="1.1"><rect x="0" y="0" width="1920" height="1080" fill="#001220"></rect><path d="M784 0L760.3 16.3C736.7 32.7 689.3 65.3 662 98C634.7 130.7 627.3 163.3 673.3 196.2C719.3 229 818.7 262 875.3 294.8C932 327.7 946 360.3 896 393C846 425.7 732 458.3 716.3 491C700.7 523.7 783.3 556.3 812.2 589C841 621.7 816 654.3 809.8 687C803.7 719.7 816.3 752.3 806.7 785.2C797 818 765 851 753.8 883.8C742.7 916.7 752.3 949.3 735.2 982C718 1014.7 674 1047.3 652 1063.7L630 1080L0 1080L0 1063.7C0 1047.3 0 1014.7 0 982C0 949.3 0 916.7 0 883.8C0 851 0 818 0 785.2C0 752.3 0 719.7 0 687C0 654.3 0 621.7 0 589C0 556.3 0 523.7 0 491C0 458.3 0 425.7 0 393C0 360.3 0 327.7 0 294.8C0 262 0 229 0 196.2C0 163.3 0 130.7 0 98C0 65.3 0 32.7 0 16.3L0 0Z" fill="#c62368"></path><path d="M765 0L762.8 16.3C760.7 32.7 756.3 65.3 735.8 98C715.3 130.7 678.7 163.3 669.7 196.2C660.7 229 679.3 262 684.3 294.8C689.3 327.7 680.7 360.3 682.7 393C684.7 425.7 697.3 458.3 708 491C718.7 523.7 727.3 556.3 732 589C736.7 621.7 737.3 654.3 725.2 687C713 719.7 688 752.3 691.5 785.2C695 818 727 851 704.3 883.8C681.7 916.7 604.3 949.3 606.5 982C608.7 1014.7 690.3 1047.3 731.2 1063.7L772 1080L0 1080L0 1063.7C0 1047.3 0 1014.7 0 982C0 949.3 0 916.7 0 883.8C0 851 0 818 0 785.2C0 752.3 0 719.7 0 687C0 654.3 0 621.7 0 589C0 556.3 0 523.7 0 491C0 458.3 0 425.7 0 393C0 360.3 0 327.7 0 294.8C0 262 0 229 0 196.2C0 163.3 0 130.7 0 98C0 65.3 0 32.7 0 16.3L0 0Z" fill="#d03267"></path><path d="M697 0L658.8 16.3C620.7 32.7 544.3 65.3 524 98C503.7 130.7 539.3 163.3 576.8 196.2C614.3 229 653.7 262 644.7 294.8C635.7 327.7 578.3 360.3 536 393C493.7 425.7 466.3 458.3 490.3 491C514.3 523.7 589.7 556.3 622.8 589C656 621.7 647 654.3 655.8 687C664.7 719.7 691.3 752.3 660.2 785.2C629 818 540 851 526.3 883.8C512.7 916.7 574.3 949.3 608.3 982C642.3 1014.7 648.7 1047.3 651.8 1063.7L655 1080L0 1080L0 1063.7C0 1047.3 0 1014.7 0 982C0 949.3 0 916.7 0 883.8C0 851 0 818 0 785.2C0 752.3 0 719.7 0 687C0 654.3 0 621.7 0 589C0 556.3 0 523.7 0 491C0 458.3 0 425.7 0 393C0 360.3 0 327.7 0 294.8C0 262 0 229 0 196.2C0 163.3 0 130.7 0 98C0 65.3 0 32.7 0 16.3L0 0Z" fill="#da3f67"></path><path d="M509 0L512.5 16.3C516 32.7 523 65.3 515.7 98C508.3 130.7 486.7 163.3 458.2 196.2C429.7 229 394.3 262 404.8 294.8C415.3 327.7 471.7 360.3 501.2 393C530.7 425.7 533.3 458.3 539.2 491C545 523.7 554 556.3 524.5 589C495 621.7 427 654.3 412 687C397 719.7 435 752.3 458.2 785.2C481.3 818 489.7 851 498.3 883.8C507 916.7 516 949.3 523.7 982C531.3 1014.7 537.7 1047.3 540.8 1063.7L544 1080L0 1080L0 1063.7C0 1047.3 0 1014.7 0 982C0 949.3 0 916.7 0 883.8C0 851 0 818 0 785.2C0 752.3 0 719.7 0 687C0 654.3 0 621.7 0 589C0 556.3 0 523.7 0 491C0 458.3 0 425.7 0 393C0 360.3 0 327.7 0 294.8C0 262 0 229 0 196.2C0 163.3 0 130.7 0 98C0 65.3 0 32.7 0 16.3L0 0Z" fill="#e34c67"></path><path d="M449 0L438.7 16.3C428.3 32.7 407.7 65.3 381.7 98C355.7 130.7 324.3 163.3 320.8 196.2C317.3 229 341.7 262 357.8 294.8C374 327.7 382 360.3 366 393C350 425.7 310 458.3 309.3 491C308.7 523.7 347.3 556.3 378.3 589C409.3 621.7 432.7 654.3 445.8 687C459 719.7 462 752.3 451.5 785.2C441 818 417 851 400.7 883.8C384.3 916.7 375.7 949.3 363.5 982C351.3 1014.7 335.7 1047.3 327.8 1063.7L320 1080L0 1080L0 1063.7C0 1047.3 0 1014.7 0 982C0 949.3 0 916.7 0 883.8C0 851 0 818 0 785.2C0 752.3 0 719.7 0 687C0 654.3 0 621.7 0 589C0 556.3 0 523.7 0 491C0 458.3 0 425.7 0 393C0 360.3 0 327.7 0 294.8C0 262 0 229 0 196.2C0 163.3 0 130.7 0 98C0 65.3 0 32.7 0 16.3L0 0Z" fill="#eb5967"></path><path d="M211 0L225 16.3C239 32.7 267 65.3 272.7 98C278.3 130.7 261.7 163.3 247.8 196.2C234 229 223 262 239.2 294.8C255.3 327.7 298.7 360.3 312 393C325.3 425.7 308.7 458.3 295.2 491C281.7 523.7 271.3 556.3 270 589C268.7 621.7 276.3 654.3 263 687C249.7 719.7 215.3 752.3 199.2 785.2C183 818 185 851 204.2 883.8C223.3 916.7 259.7 949.3 260.7 982C261.7 1014.7 227.3 1047.3 210.2 1063.7L193 1080L0 1080L0 1063.7C0 1047.3 0 1014.7 0 982C0 949.3 0 916.7 0 883.8C0 851 0 818 0 785.2C0 752.3 0 719.7 0 687C0 654.3 0 621.7 0 589C0 556.3 0 523.7 0 491C0 458.3 0 425.7 0 393C0 360.3 0 327.7 0 294.8C0 262 0 229 0 196.2C0 163.3 0 130.7 0 98C0 65.3 0 32.7 0 16.3L0 0Z" fill="#f36567"></path><path d="M153 0L154.5 16.3C156 32.7 159 65.3 167.2 98C175.3 130.7 188.7 163.3 182.5 196.2C176.3 229 150.7 262 151.2 294.8C151.7 327.7 178.3 360.3 191.7 393C205 425.7 205 458.3 194 491C183 523.7 161 556.3 146.8 589C132.7 621.7 126.3 654.3 116.8 687C107.3 719.7 94.7 752.3 88.8 785.2C83 818 84 851 99.5 883.8C115 916.7 145 949.3 158.8 982C172.7 1014.7 170.3 1047.3 169.2 1063.7L168 1080L0 1080L0 1063.7C0 1047.3 0 1014.7 0 982C0 949.3 0 916.7 0 883.8C0 851 0 818 0 785.2C0 752.3 0 719.7 0 687C0 654.3 0 621.7 0 589C0 556.3 0 523.7 0 491C0 458.3 0 425.7 0 393C0 360.3 0 327.7 0 294.8C0 262 0 229 0 196.2C0 163.3 0 130.7 0 98C0 65.3 0 32.7 0 16.3L0 0Z" fill="#fa7268"></path></svg>