<svg id="visual" viewBox="0 0 1920 1080" width="1920" height="1080" xmlns="http://www.w3.org/2000/svg" xmlns:xlink="http://www.w3.org/1999/xlink" version="1.1"><rect x="0" y="0" width="1920" height="1080" fill="#ffffff"></rect><path d="M1589 1080L1592.5 1068.8C1596 1057.7 1603 1035.3 1599.2 1012.8C1595.3 990.3 1580.7 967.7 1557.7 945.2C1534.7 922.7 1503.3 900.3 1508 877.8C1512.7 855.3 1553.3 832.7 1570.7 810.2C1588 787.7 1582 765.3 1586 742.8C1590 720.3 1604 697.7 1607.2 675.2C1610.3 652.7 1602.7 630.3 1577.7 607.8C1552.7 585.3 1510.3 562.7 1487.7 540.2C1465 517.7 1462 495.3 1462.7 472.8C1463.3 450.3 1467.7 427.7 1480.8 405.2C1494 382.7 1516 360.3 1531.7 337.8C1547.3 315.3 1556.7 292.7 1563.3 270.2C1570 247.7 1574 225.3 1568.2 202.8C1562.3 180.3 1546.7 157.7 1539.8 135.2C1533 112.7 1535 90.3 1523.7 67.8C1512.3 45.3 1487.7 22.7 1475.3 11.3L1463 0L1920 0L1920 11.3C1920 22.7 1920 45.3 1920 67.8C1920 90.3 1920 112.7 1920 135.2C1920 157.7 1920 180.3 1920 202.8C1920 225.3 1920 247.7 1920 270.2C1920 292.7 1920 315.3 1920 337.8C1920 360.3 1920 382.7 1920 405.2C1920 427.7 1920 450.3 1920 472.8C1920 495.3 1920 517.7 1920 540.2C1920 562.7 1920 585.3 1920 607.8C1920 630.3 1920 652.7 1920 675.2C1920 697.7 1920 720.3 1920 742.8C1920 765.3 1920 787.7 1920 810.2C1920 832.7 1920 855.3 1920 877.8C1920 900.3 1920 922.7 1920 945.2C1920 967.7 1920 990.3 1920 1012.8C1920 1035.3 1920 1057.7 1920 1068.8L1920 1080Z" fill="#fa7268"></path><path d="M1548 1080L1545 1068.8C1542 1057.7 1536 1035.3 1537.7 1012.8C1539.3 990.3 1548.7 967.7 1560.3 945.2C1572 922.7 1586 900.3 1590.3 877.8C1594.7 855.3 1589.3 832.7 1579.3 810.2C1569.3 787.7 1554.7 765.3 1563.8 742.8C1573 720.3 1606 697.7 1608.8 675.2C1611.7 652.7 1584.3 630.3 1586 607.8C1587.7 585.3 1618.3 562.7 1640.2 540.2C1662 517.7 1675 495.3 1656.5 472.8C1638 450.3 1588 427.7 1585.5 405.2C1583 382.7 1628 360.3 1635.8 337.8C1643.7 315.3 1614.3 292.7 1598.3 270.2C1582.3 247.7 1579.7 225.3 1576.7 202.8C1573.7 180.3 1570.3 157.7 1581.8 135.2C1593.3 112.7 1619.7 90.3 1634.7 67.8C1649.7 45.3 1653.3 22.7 1655.2 11.3L1657 0L1920 0L1920 11.3C1920 22.7 1920 45.3 1920 67.8C1920 90.3 1920 112.7 1920 135.2C1920 157.7 1920 180.3 1920 202.8C1920 225.3 1920 247.7 1920 270.2C1920 292.7 1920 315.3 1920 337.8C1920 360.3 1920 382.7 1920 405.2C1920 427.7 1920 450.3 1920 472.8C1920 495.3 1920 517.7 1920 540.2C1920 562.7 1920 585.3 1920 607.8C1920 630.3 1920 652.7 1920 675.2C1920 697.7 1920 720.3 1920 742.8C1920 765.3 1920 787.7 1920 810.2C1920 832.7 1920 855.3 1920 877.8C1920 900.3 1920 922.7 1920 945.2C1920 967.7 1920 990.3 1920 1012.8C1920 1035.3 1920 1057.7 1920 1068.8L1920 1080Z" fill="#ef5f67"></path><path d="M1739 1080L1730.3 1068.8C1721.7 1057.7 1704.3 1035.3 1696.8 1012.8C1689.3 990.3 1691.7 967.7 1684.5 945.2C1677.3 922.7 1660.7 900.3 1653.5 877.8C1646.3 855.3 1648.7 832.7 1654.7 810.2C1660.7 787.7 1670.3 765.3 1681.3 742.8C1692.3 720.3 1704.7 697.7 1701.8 675.2C1699 652.7 1681 630.3 1666.7 607.8C1652.3 585.3 1641.7 562.7 1634.3 540.2C1627 517.7 1623 495.3 1626 472.8C1629 450.3 1639 427.7 1657 405.2C1675 382.7 1701 360.3 1697.7 337.8C1694.3 315.3 1661.7 292.7 1658.8 270.2C1656 247.7 1683 225.3 1701.2 202.8C1719.3 180.3 1728.7 157.7 1717.7 135.2C1706.7 112.7 1675.3 90.3 1673.3 67.8C1671.3 45.3 1698.7 22.7 1712.3 11.3L1726 0L1920 0L1920 11.3C1920 22.7 1920 45.3 1920 67.8C1920 90.3 1920 112.7 1920 135.2C1920 157.7 1920 180.3 1920 202.8C1920 225.3 1920 247.7 1920 270.2C1920 292.7 1920 315.3 1920 337.8C1920 360.3 1920 382.7 1920 405.2C1920 427.7 1920 450.3 1920 472.8C1920 495.3 1920 517.7 1920 540.2C1920 562.7 1920 585.3 1920 607.8C1920 630.3 1920 652.7 1920 675.2C1920 697.7 1920 720.3 1920 742.8C1920 765.3 1920 787.7 1920 810.2C1920 832.7 1920 855.3 1920 877.8C1920 900.3 1920 922.7 1920 945.2C1920 967.7 1920 990.3 1920 1012.8C1920 1035.3 1920 1057.7 1920 1068.8L1920 1080Z" fill="#e34c67"></path><path d="M1707 1080L1718.2 1068.8C1729.3 1057.7 1751.7 1035.3 1766 1012.8C1780.3 990.3 1786.7 967.7 1783.7 945.2C1780.7 922.7 1768.3 900.3 1760.5 877.8C1752.7 855.3 1749.3 832.7 1744.7 810.2C1740 787.7 1734 765.3 1740.3 742.8C1746.7 720.3 1765.3 697.7 1768.3 675.2C1771.3 652.7 1758.7 630.3 1753.8 607.8C1749 585.3 1752 562.7 1748 540.2C1744 517.7 1733 495.3 1723 472.8C1713 450.3 1704 427.7 1707.2 405.2C1710.3 382.7 1725.7 360.3 1741 337.8C1756.3 315.3 1771.7 292.7 1778.3 270.2C1785 247.7 1783 225.3 1786.2 202.8C1789.3 180.3 1797.7 157.7 1784 135.2C1770.3 112.7 1734.7 90.3 1735.5 67.8C1736.3 45.3 1773.7 22.7 1792.3 11.3L1811 0L1920 0L1920 11.3C1920 22.7 1920 45.3 1920 67.8C1920 90.3 1920 112.7 1920 135.2C1920 157.7 1920 180.3 1920 202.8C1920 225.3 1920 247.7 1920 270.2C1920 292.7 1920 315.3 1920 337.8C1920 360.3 1920 382.7 1920 405.2C1920 427.7 1920 450.3 1920 472.8C1920 495.3 1920 517.7 1920 540.2C1920 562.7 1920 585.3 1920 607.8C1920 630.3 1920 652.7 1920 675.2C1920 697.7 1920 720.3 1920 742.8C1920 765.3 1920 787.7 1920 810.2C1920 832.7 1920 855.3 1920 877.8C1920 900.3 1920 922.7 1920 945.2C1920 967.7 1920 990.3 1920 1012.8C1920 1035.3 1920 1057.7 1920 1068.8L1920 1080Z" fill="#d53867"></path><path d="M1797 1080L1798.2 1068.8C1799.3 1057.7 1801.7 1035.3 1801.3 1012.8C1801 990.3 1798 967.7 1802.5 945.2C1807 922.7 1819 900.3 1828 877.8C1837 855.3 1843 832.7 1835.5 810.2C1828 787.7 1807 765.3 1809.3 742.8C1811.7 720.3 1837.3 697.7 1844 675.2C1850.7 652.7 1838.3 630.3 1830.2 607.8C1822 585.3 1818 562.7 1823.7 540.2C1829.3 517.7 1844.7 495.3 1846.5 472.8C1848.3 450.3 1836.7 427.7 1823.5 405.2C1810.3 382.7 1795.7 360.3 1789.8 337.8C1784 315.3 1787 292.7 1792.7 270.2C1798.3 247.7 1806.7 225.3 1814 202.8C1821.3 180.3 1827.7 157.7 1836.8 135.2C1846 112.7 1858 90.3 1856.2 67.8C1854.3 45.3 1838.7 22.7 1830.8 11.3L1823 0L1920 0L1920 11.3C1920 22.7 1920 45.3 1920 67.8C1920 90.3 1920 112.7 1920 135.2C1920 157.7 1920 180.3 1920 202.8C1920 225.3 1920 247.7 1920 270.2C1920 292.7 1920 315.3 1920 337.8C1920 360.3 1920 382.7 1920 405.2C1920 427.7 1920 450.3 1920 472.8C1920 495.3 1920 517.7 1920 540.2C1920 562.7 1920 585.3 1920 607.8C1920 630.3 1920 652.7 1920 675.2C1920 697.7 1920 720.3 1920 742.8C1920 765.3 1920 787.7 1920 810.2C1920 832.7 1920 855.3 1920 877.8C1920 900.3 1920 922.7 1920 945.2C1920 967.7 1920 990.3 1920 1012.8C1920 1035.3 1920 1057.7 1920 1068.8L1920 1080Z" fill="#c62368"></path></svg>