<svg id="visual" viewBox="0 0 1920 1080" width="1920" height="1080" xmlns="http://www.w3.org/2000/svg" xmlns:xlink="http://www.w3.org/1999/xlink" version="1.1"><rect x="0" y="0" width="1920" height="1080" fill="#001220"></rect><path d="M0 801L24.7 805.3C49.3 809.7 98.7 818.3 147.8 819.8C197 821.3 246 815.7 295.2 813.3C344.3 811 393.7 812 443 812.2C492.3 812.3 541.7 811.7 590.8 809.3C640 807 689 803 738.2 800.7C787.3 798.3 836.7 797.7 886 800.2C935.3 802.7 984.7 808.3 1034 811.5C1083.3 814.7 1132.7 815.3 1181.8 817.2C1231 819 1280 822 1329.2 822.3C1378.3 822.7 1427.7 820.3 1477 817.3C1526.3 814.3 1575.7 810.7 1624.8 808.8C1674 807 1723 807 1772.2 810C1821.3 813 1870.7 819 1895.3 822L1920 825L1920 1081L1895.3 1081C1870.7 1081 1821.3 1081 1772.2 1081C1723 1081 1674 1081 1624.8 1081C1575.7 1081 1526.3 1081 1477 1081C1427.7 1081 1378.3 1081 1329.2 1081C1280 1081 1231 1081 1181.8 1081C1132.7 1081 1083.3 1081 1034 1081C984.7 1081 935.3 1081 886 1081C836.7 1081 787.3 1081 738.2 1081C689 1081 640 1081 590.8 1081C541.7 1081 492.3 1081 443 1081C393.7 1081 344.3 1081 295.2 1081C246 1081 197 1081 147.8 1081C98.7 1081 49.3 1081 24.7 1081L0 1081Z" fill="#fa7268"></path><path d="M0 840L24.7 838.7C49.3 837.3 98.7 834.7 147.8 832.7C197 830.7 246 829.3 295.2 829.3C344.3 829.3 393.7 830.7 443 832.8C492.3 835 541.7 838 590.8 838.3C640 838.7 689 836.3 738.2 834.3C787.3 832.3 836.7 830.7 886 832.8C935.3 835 984.7 841 1034 839.8C1083.3 838.7 1132.7 830.3 1181.8 829.8C1231 829.3 1280 836.7 1329.2 838.2C1378.3 839.7 1427.7 835.3 1477 832.5C1526.3 829.7 1575.7 828.3 1624.8 829.5C1674 830.7 1723 834.3 1772.2 835.7C1821.3 837 1870.7 836 1895.3 835.5L1920 835L1920 1081L1895.3 1081C1870.7 1081 1821.3 1081 1772.2 1081C1723 1081 1674 1081 1624.8 1081C1575.7 1081 1526.3 1081 1477 1081C1427.7 1081 1378.3 1081 1329.2 1081C1280 1081 1231 1081 1181.8 1081C1132.7 1081 1083.3 1081 1034 1081C984.7 1081 935.3 1081 886 1081C836.7 1081 787.3 1081 738.2 1081C689 1081 640 1081 590.8 1081C541.7 1081 492.3 1081 443 1081C393.7 1081 344.3 1081 295.2 1081C246 1081 197 1081 147.8 1081C98.7 1081 49.3 1081 24.7 1081L0 1081Z" fill="#f56a67"></path><path d="M0 864L24.7 862.3C49.3 860.7 98.7 857.3 147.8 856.3C197 855.3 246 856.7 295.2 860.3C344.3 864 393.7 870 443 869.5C492.3 869 541.7 862 590.8 860.5C640 859 689 863 738.2 865.2C787.3 867.3 836.7 867.7 886 869.7C935.3 871.7 984.7 875.3 1034 874.2C1083.3 873 1132.7 867 1181.8 865.3C1231 863.7 1280 866.3 1329.2 866.3C1378.3 866.3 1427.7 863.7 1477 865C1526.3 866.3 1575.7 871.7 1624.8 872.7C1674 873.7 1723 870.3 1772.2 869.7C1821.3 869 1870.7 871 1895.3 872L1920 873L1920 1081L1895.3 1081C1870.7 1081 1821.3 1081 1772.2 1081C1723 1081 1674 1081 1624.8 1081C1575.7 1081 1526.3 1081 1477 1081C1427.7 1081 1378.3 1081 1329.2 1081C1280 1081 1231 1081 1181.8 1081C1132.7 1081 1083.3 1081 1034 1081C984.7 1081 935.3 1081 886 1081C836.7 1081 787.3 1081 738.2 1081C689 1081 640 1081 590.8 1081C541.7 1081 492.3 1081 443 1081C393.7 1081 344.3 1081 295.2 1081C246 1081 197 1081 147.8 1081C98.7 1081 49.3 1081 24.7 1081L0 1081Z" fill="#f06167"></path><path d="M0 880L24.7 881.7C49.3 883.3 98.7 886.7 147.8 886.8C197 887 246 884 295.2 885C344.3 886 393.7 891 443 891.2C492.3 891.3 541.7 886.7 590.8 885.7C640 884.7 689 887.3 738.2 886.5C787.3 885.7 836.7 881.3 886 882.5C935.3 883.7 984.7 890.3 1034 891.5C1083.3 892.7 1132.7 888.3 1181.8 886.5C1231 884.7 1280 885.3 1329.2 886.2C1378.3 887 1427.7 888 1477 890.7C1526.3 893.3 1575.7 897.7 1624.8 898.8C1674 900 1723 898 1772.2 896.7C1821.3 895.3 1870.7 894.7 1895.3 894.3L1920 894L1920 1081L1895.3 1081C1870.7 1081 1821.3 1081 1772.2 1081C1723 1081 1674 1081 1624.8 1081C1575.7 1081 1526.3 1081 1477 1081C1427.7 1081 1378.3 1081 1329.2 1081C1280 1081 1231 1081 1181.8 1081C1132.7 1081 1083.3 1081 1034 1081C984.7 1081 935.3 1081 886 1081C836.7 1081 787.3 1081 738.2 1081C689 1081 640 1081 590.8 1081C541.7 1081 492.3 1081 443 1081C393.7 1081 344.3 1081 295.2 1081C246 1081 197 1081 147.8 1081C98.7 1081 49.3 1081 24.7 1081L0 1081Z" fill="#eb5967"></path><path d="M0 918L24.7 919.7C49.3 921.3 98.7 924.7 147.8 922.5C197 920.3 246 912.7 295.2 909C344.3 905.3 393.7 905.7 443 907.7C492.3 909.7 541.7 913.3 590.8 914C640 914.7 689 912.3 738.2 913.3C787.3 914.3 836.7 918.7 886 919.8C935.3 921 984.7 919 1034 919.7C1083.3 920.3 1132.7 923.7 1181.8 925.8C1231 928 1280 929 1329.2 928.8C1378.3 928.7 1427.7 927.3 1477 926.3C1526.3 925.3 1575.7 924.7 1624.8 922C1674 919.3 1723 914.7 1772.2 911.5C1821.3 908.3 1870.7 906.7 1895.3 905.8L1920 905L1920 1081L1895.3 1081C1870.7 1081 1821.3 1081 1772.2 1081C1723 1081 1674 1081 1624.8 1081C1575.7 1081 1526.3 1081 1477 1081C1427.7 1081 1378.3 1081 1329.2 1081C1280 1081 1231 1081 1181.8 1081C1132.7 1081 1083.3 1081 1034 1081C984.7 1081 935.3 1081 886 1081C836.7 1081 787.3 1081 738.2 1081C689 1081 640 1081 590.8 1081C541.7 1081 492.3 1081 443 1081C393.7 1081 344.3 1081 295.2 1081C246 1081 197 1081 147.8 1081C98.7 1081 49.3 1081 24.7 1081L0 1081Z" fill="#e65067"></path><path d="M0 944L24.7 945.7C49.3 947.3 98.7 950.7 147.8 950.8C197 951 246 948 295.2 944.7C344.3 941.3 393.7 937.7 443 939.2C492.3 940.7 541.7 947.3 590.8 947.3C640 947.3 689 940.7 738.2 939.2C787.3 937.7 836.7 941.3 886 943.2C935.3 945 984.7 945 1034 944.8C1083.3 944.7 1132.7 944.3 1181.8 942.7C1231 941 1280 938 1329.2 936.3C1378.3 934.7 1427.7 934.3 1477 937.2C1526.3 940 1575.7 946 1624.8 946.5C1674 947 1723 942 1772.2 941.2C1821.3 940.3 1870.7 943.7 1895.3 945.3L1920 947L1920 1081L1895.3 1081C1870.7 1081 1821.3 1081 1772.2 1081C1723 1081 1674 1081 1624.8 1081C1575.7 1081 1526.3 1081 1477 1081C1427.7 1081 1378.3 1081 1329.2 1081C1280 1081 1231 1081 1181.8 1081C1132.7 1081 1083.3 1081 1034 1081C984.7 1081 935.3 1081 886 1081C836.7 1081 787.3 1081 738.2 1081C689 1081 640 1081 590.8 1081C541.7 1081 492.3 1081 443 1081C393.7 1081 344.3 1081 295.2 1081C246 1081 197 1081 147.8 1081C98.7 1081 49.3 1081 24.7 1081L0 1081Z" fill="#e04867"></path><path d="M0 962L24.7 961.7C49.3 961.3 98.7 960.7 147.8 961.8C197 963 246 966 295.2 967.5C344.3 969 393.7 969 443 969.3C492.3 969.7 541.7 970.3 590.8 972.2C640 974 689 977 738.2 978.7C787.3 980.3 836.7 980.7 886 978.8C935.3 977 984.7 973 1034 969.5C1083.3 966 1132.7 963 1181.8 962.8C1231 962.7 1280 965.3 1329.2 968.5C1378.3 971.7 1427.7 975.3 1477 976.2C1526.3 977 1575.7 975 1624.8 972.5C1674 970 1723 967 1772.2 966.3C1821.3 965.7 1870.7 967.3 1895.3 968.2L1920 969L1920 1081L1895.3 1081C1870.7 1081 1821.3 1081 1772.2 1081C1723 1081 1674 1081 1624.8 1081C1575.7 1081 1526.3 1081 1477 1081C1427.7 1081 1378.3 1081 1329.2 1081C1280 1081 1231 1081 1181.8 1081C1132.7 1081 1083.3 1081 1034 1081C984.7 1081 935.3 1081 886 1081C836.7 1081 787.3 1081 738.2 1081C689 1081 640 1081 590.8 1081C541.7 1081 492.3 1081 443 1081C393.7 1081 344.3 1081 295.2 1081C246 1081 197 1081 147.8 1081C98.7 1081 49.3 1081 24.7 1081L0 1081Z" fill="#da3f67"></path><path d="M0 989L24.7 989.7C49.3 990.3 98.7 991.7 147.8 992.7C197 993.7 246 994.3 295.2 996.2C344.3 998 393.7 1001 443 1001.3C492.3 1001.7 541.7 999.3 590.8 999.5C640 999.7 689 1002.3 738.2 1003.2C787.3 1004 836.7 1003 886 1000.3C935.3 997.7 984.7 993.3 1034 990.8C1083.3 988.3 1132.7 987.7 1181.8 989.5C1231 991.3 1280 995.7 1329.2 998.7C1378.3 1001.7 1427.7 1003.3 1477 1004.5C1526.3 1005.7 1575.7 1006.3 1624.8 1005.2C1674 1004 1723 1001 1772.2 998.8C1821.3 996.7 1870.7 995.3 1895.3 994.7L1920 994L1920 1081L1895.3 1081C1870.7 1081 1821.3 1081 1772.2 1081C1723 1081 1674 1081 1624.8 1081C1575.7 1081 1526.3 1081 1477 1081C1427.7 1081 1378.3 1081 1329.2 1081C1280 1081 1231 1081 1181.8 1081C1132.7 1081 1083.3 1081 1034 1081C984.7 1081 935.3 1081 886 1081C836.7 1081 787.3 1081 738.2 1081C689 1081 640 1081 590.8 1081C541.7 1081 492.3 1081 443 1081C393.7 1081 344.3 1081 295.2 1081C246 1081 197 1081 147.8 1081C98.7 1081 49.3 1081 24.7 1081L0 1081Z" fill="#d43667"></path><path d="M0 1016L24.7 1016.2C49.3 1016.3 98.7 1016.7 147.8 1016.5C197 1016.3 246 1015.7 295.2 1015.2C344.3 1014.7 393.7 1014.3 443 1015.8C492.3 1017.3 541.7 1020.7 590.8 1020.7C640 1020.7 689 1017.3 738.2 1018C787.3 1018.7 836.7 1023.3 886 1025.8C935.3 1028.3 984.7 1028.7 1034 1028.8C1083.3 1029 1132.7 1029 1181.8 1028.8C1231 1028.7 1280 1028.3 1329.2 1028.2C1378.3 1028 1427.7 1028 1477 1027.5C1526.3 1027 1575.7 1026 1624.8 1025.5C1674 1025 1723 1025 1772.2 1024.7C1821.3 1024.3 1870.7 1023.7 1895.3 1023.3L1920 1023L1920 1081L1895.3 1081C1870.7 1081 1821.3 1081 1772.2 1081C1723 1081 1674 1081 1624.8 1081C1575.7 1081 1526.3 1081 1477 1081C1427.7 1081 1378.3 1081 1329.2 1081C1280 1081 1231 1081 1181.8 1081C1132.7 1081 1083.3 1081 1034 1081C984.7 1081 935.3 1081 886 1081C836.7 1081 787.3 1081 738.2 1081C689 1081 640 1081 590.8 1081C541.7 1081 492.3 1081 443 1081C393.7 1081 344.3 1081 295.2 1081C246 1081 197 1081 147.8 1081C98.7 1081 49.3 1081 24.7 1081L0 1081Z" fill="#cd2d68"></path><path d="M0 1053L24.7 1051.2C49.3 1049.3 98.7 1045.7 147.8 1046.5C197 1047.3 246 1052.7 295.2 1053.3C344.3 1054 393.7 1050 443 1048.3C492.3 1046.7 541.7 1047.3 590.8 1047.3C640 1047.3 689 1046.7 738.2 1045.8C787.3 1045 836.7 1044 886 1044.3C935.3 1044.7 984.7 1046.3 1034 1046.3C1083.3 1046.3 1132.7 1044.7 1181.8 1044C1231 1043.3 1280 1043.7 1329.2 1046C1378.3 1048.3 1427.7 1052.7 1477 1054.2C1526.3 1055.7 1575.7 1054.3 1624.8 1051.7C1674 1049 1723 1045 1772.2 1045.2C1821.3 1045.3 1870.7 1049.7 1895.3 1051.8L1920 1054L1920 1081L1895.3 1081C1870.7 1081 1821.3 1081 1772.2 1081C1723 1081 1674 1081 1624.8 1081C1575.7 1081 1526.3 1081 1477 1081C1427.7 1081 1378.3 1081 1329.2 1081C1280 1081 1231 1081 1181.8 1081C1132.7 1081 1083.3 1081 1034 1081C984.7 1081 935.3 1081 886 1081C836.7 1081 787.3 1081 738.2 1081C689 1081 640 1081 590.8 1081C541.7 1081 492.3 1081 443 1081C393.7 1081 344.3 1081 295.2 1081C246 1081 197 1081 147.8 1081C98.7 1081 49.3 1081 24.7 1081L0 1081Z" fill="#c62368"></path></svg>